<svg xmlns="http://www.w3.org/2000/svg" width="1em" height="1em" style="flex:none;line-height:1" viewBox="0 0 24 24"><title>Tuzi</title><path d="M9 1L7.5 6.5L9 9L8 10C6 11 5 13 5 15.5C5 18.5 7.5 21 11 21H13C16.5 21 19 18.5 19 15.5C19 13 18 11 16 10L15 9L16.5 6.5L15 1L13 4L12 3L11 4L9 1Z" fill="#4BA3E3"/><path d="M9 1L7.5 6.5L9 9L12 10L15 9L16.5 6.5L15 1L13 4L12 3L11 4L9 1Z" fill="#7ECBF5"/><path d="M8 10L9 9L12 10L15 9L16 10C14.5 10.5 13 11 12 11C11 11 9.5 10.5 8 10Z" fill="#3B8FD4"/><path d="M5 15.5C5 13 6 11 8 10C9.5 10.5 11 11 12 11C13 11 14.5 10.5 16 10C18 11 19 13 19 15.5C19 18.5 16.5 21 13 21H11C7.5 21 5 18.5 5 15.5Z" fill="#5AADE5"/><path d="M7.5 6.5L9 9L10 7L9 1L7.5 6.5Z" fill="#A8DEFF"/><path d="M16.5 6.5L15 9L14 7L15 1L16.5 6.5Z" fill="#A8DEFF"/><path d="M9 1L10 7L11 4L12 3L13 4L14 7L15 1L13 4L12 3L11 4L9 1Z" fill="#6BBEF0"/><circle cx="10" cy="14" r="1.2" fill="#1A3A5C"/><circle cx="10.4" cy="13.7" r="0.4" fill="white"/></svg>
